<?xml version="1.0" encoding="UTF-8" standalone="no"?>
<!-- Created with Inkscape (http://www.inkscape.org/) -->

<svg
   xmlns:dc="http://purl.org/dc/elements/1.1/"
   xmlns:cc="http://creativecommons.org/ns#"
   xmlns:rdf="http://www.w3.org/1999/02/22-rdf-syntax-ns#"
   xmlns:svg="http://www.w3.org/2000/svg"
   xmlns="http://www.w3.org/2000/svg"
   xmlns:sodipodi="http://sodipodi.sourceforge.net/DTD/sodipodi-0.dtd"
   xmlns:inkscape="http://www.inkscape.org/namespaces/inkscape"
   width="150"
   height="150"
   viewBox="0 0 39.687499 39.687501"
   version="1.1"
   id="svg1993"
   inkscape:version="0.92.3 (2405546, 2018-03-11)"
   sodipodi:docname="150x150.svg">
  <defs
     id="defs1987" />
  <sodipodi:namedview
     id="base"
     pagecolor="#ffffff"
     bordercolor="#666666"
     borderopacity="1.0"
     inkscape:pageopacity="0.0"
     inkscape:pageshadow="2"
     inkscape:zoom="4"
     inkscape:cx="82.044344"
     inkscape:cy="87.419355"
     inkscape:document-units="mm"
     inkscape:current-layer="layer1"
     showgrid="false"
     units="px"
     inkscape:window-width="1920"
     inkscape:window-height="1052"
     inkscape:window-x="1366"
     inkscape:window-y="0"
     inkscape:window-maximized="1" />
  <metadata
     id="metadata1990">
    <rdf:RDF>
      <cc:Work
         rdf:about="">
        <dc:format>image/svg+xml</dc:format>
        <dc:type
           rdf:resource="http://purl.org/dc/dcmitype/StillImage" />
        <dc:title></dc:title>
      </cc:Work>
    </rdf:RDF>
  </metadata>
  <g
     inkscape:label="Layer 1"
     inkscape:groupmode="layer"
     id="layer1"
     transform="translate(0,-257.31248)">
    <path
       style="display:inline;fill:none;fill-opacity:1;stroke:#000000;stroke-width:0.71678632;stroke-linejoin:round;stroke-miterlimit:4;stroke-dasharray:none;stroke-opacity:1"
       d="m 1.5728367,279.34113 c 0.030965,-13.43057 0.035489,-13.73648 0.2078703,-14.10132 0.305393,-0.64631 0.838999,-1.16269 1.5800121,-1.52902 l 0.6836718,-0.33799 7.5311151,-0.0447 c 4.142116,-0.0244 11.240487,-0.0244 15.774162,0 l 8.243041,0.0447 0.53133,0.2487 c 0.735303,0.34435 1.237518,0.78071 1.616412,1.40443 l 0.322295,0.53055 -0.02547,9.7047 -0.02547,9.70469 -0.244985,0.41672 c -0.444501,0.75614 -1.312178,1.3765 -2.237663,1.59987 -0.250485,0.0604 -4.986891,0.1127 -13.589123,0.14981 l -13.204622,0.0569 -3.4445407,2.83067 c -1.8944995,1.55688 -3.5132112,2.87995 -3.5971396,2.94012 -0.143583,0.10295 -0.1507351,-0.70171 -0.1209619,-13.61893 z"
       id="path1083"
       inkscape:connector-curvature="0" />
    <path
       id="path864"
       d="m 19.751302,272.0907 c 0,-0.79564 -0.645094,-1.43358 -1.433554,-1.43358 h -4.530099 l 0.688115,-3.27572 c 0.01355,-0.0718 0.02167,-0.15063 0.02167,-0.22947 0,-0.29388 -0.12191,-0.56626 -0.315395,-0.75979 l -0.759801,-0.75262 -4.7164513,4.71646 c -0.2652223,0.26522 -0.4228927,0.62358 -0.4228927,1.01781 v 7.16788 a 1.4335727,1.4335727 0 0 0 1.4335818,1.43356 h 6.4510702 c 0.594921,0 1.103828,-0.35839 1.318877,-0.87448 l 2.164691,-5.05334 c 0.06448,-0.16498 0.100237,-0.33687 0.100237,-0.52326 v -1.43356 m -15.7692835,7.88464 h 2.8671364 v -8.60144 H 3.9820705 Z"
       inkscape:connector-curvature="0"
       style="display:inline;fill:#008000;stroke-width:0.71678632" />
    <path
       id="path924"
       d="m 33.140861,279.25856 h 2.867163 v -8.60144 h -2.867163 m -2.867128,0 h -6.451077 c -0.594921,0 -1.103855,0.35839 -1.318878,0.87447 l -2.164717,5.05334 c -0.06448,0.16499 -0.100237,0.33691 -0.100237,0.52327 v 1.43358 a 1.4335727,1.4335727 0 0 0 1.433581,1.43355 h 4.52292 l -0.680936,3.27573 c -0.01355,0.0718 -0.02167,0.14331 -0.02167,0.22215 0,0.30103 0.121911,0.56626 0.315368,0.75979 l 0.759798,0.7598 4.716458,-4.72364 c 0.265223,-0.2579 0.42292,-0.61643 0.42292,-1.01066 v -7.16785 c 0,-0.79564 -0.645121,-1.43358 -1.433582,-1.43358 z"
       inkscape:connector-curvature="0"
       style="display:inline;fill:#800000;stroke-width:0.71678632" />
    <text
       xml:space="preserve"
       style="font-style:normal;font-weight:normal;font-size:28.67145348px;line-height:1.25;font-family:sans-serif;letter-spacing:0px;word-spacing:0px;display:inline;fill:#000000;fill-opacity:1;stroke:none;stroke-width:0.71678632"
       x="14.773203"
       y="269.13406"
       id="text939"><tspan
         sodipodi:role="line"
         id="tspan937"
         x="14.773203"
         y="269.13406"
         style="font-size:5.7342906px;fill:#008000;stroke-width:0.71678632">плюсы</tspan></text>
    <text
       xml:space="preserve"
       style="font-style:normal;font-weight:normal;font-size:28.67145348px;line-height:1.25;font-family:sans-serif;letter-spacing:0px;word-spacing:0px;display:inline;fill:#000000;fill-opacity:1;stroke:none;stroke-width:0.71678632"
       x="2.5878754"
       y="284.63467"
       id="text943"><tspan
         sodipodi:role="line"
         id="tspan941"
         x="2.5878754"
         y="284.63467"
         style="font-size:5.7342906px;fill:#800000;stroke-width:0.71678632">минусы</tspan></text>
  </g>
</svg>
