<?xml version="1.0" encoding="UTF-8" standalone="no"?>
<!-- Created with Inkscape (http://www.inkscape.org/) -->

<svg
   xmlns:dc="http://purl.org/dc/elements/1.1/"
   xmlns:cc="http://creativecommons.org/ns#"
   xmlns:rdf="http://www.w3.org/1999/02/22-rdf-syntax-ns#"
   xmlns:svg="http://www.w3.org/2000/svg"
   xmlns="http://www.w3.org/2000/svg"
   xmlns:sodipodi="http://sodipodi.sourceforge.net/DTD/sodipodi-0.dtd"
   xmlns:inkscape="http://www.inkscape.org/namespaces/inkscape"
   width="150"
   height="150"
   viewBox="0 0 39.687499 39.687501"
   version="1.1"
   id="svg1993"
   inkscape:version="0.92.3 (2405546, 2018-03-11)"
   sodipodi:docname="150x150v2.svg">
  <defs
     id="defs1987" />
  <sodipodi:namedview
     id="base"
     pagecolor="#ffffff"
     bordercolor="#666666"
     borderopacity="1.0"
     inkscape:pageopacity="0.0"
     inkscape:pageshadow="2"
     inkscape:zoom="4"
     inkscape:cx="35.794344"
     inkscape:cy="87.419355"
     inkscape:document-units="mm"
     inkscape:current-layer="layer1"
     showgrid="false"
     units="px"
     inkscape:window-width="1920"
     inkscape:window-height="1052"
     inkscape:window-x="1366"
     inkscape:window-y="0"
     inkscape:window-maximized="1" />
  <metadata
     id="metadata1990">
    <rdf:RDF>
      <cc:Work
         rdf:about="">
        <dc:format>image/svg+xml</dc:format>
        <dc:type
           rdf:resource="http://purl.org/dc/dcmitype/StillImage" />
        <dc:title></dc:title>
      </cc:Work>
    </rdf:RDF>
  </metadata>
  <g
     inkscape:label="Layer 1"
     inkscape:groupmode="layer"
     id="layer1"
     transform="translate(0,-257.31248)">
    <path
       id="path864"
       d="m 19.528044,272.16782 c 0,-0.98462 -0.798316,-1.77409 -1.774051,-1.77409 H 12.14791 l 0.851556,-4.05376 c 0.01677,-0.0888 0.02682,-0.18641 0.02682,-0.28397 0,-0.36369 -0.150866,-0.70076 -0.390308,-0.94026 l -0.940268,-0.93138 -5.8366976,5.83671 c -0.3282176,0.32821 -0.5233377,0.77169 -0.5233377,1.25956 v 8.87038 a 1.7740733,1.7740733 0 0 0 1.7740846,1.77406 h 7.9833217 c 0.736226,0 1.366008,-0.44351 1.632135,-1.08218 l 2.678846,-6.25361 c 0.0798,-0.20416 0.124045,-0.41688 0.124045,-0.64754 v -1.77406 M 0.0133175,281.92507 H 3.5614531 V 271.28063 H 0.01332121 Z"
       inkscape:connector-curvature="0"
       style="display:inline;fill:#008000;stroke-width:0.88703662" />
    <path
       id="path924"
       d="m 36.097876,281.03818 h 3.548169 v -10.64446 h -3.548169 m -3.548125,0 h -7.98333 c -0.736226,0 -1.366041,0.44352 -1.632136,1.08218 l -2.678878,6.2536 c -0.0798,0.20418 -0.124046,0.41693 -0.124046,0.64756 v 1.77408 a 1.7740733,1.7740733 0 0 0 1.774084,1.77406 h 5.597199 l -0.842671,4.05377 c -0.01677,0.0889 -0.02682,0.17735 -0.02682,0.27492 0,0.37253 0.150867,0.70076 0.390274,0.94025 l 0.940264,0.94027 5.836706,-5.84559 c 0.328219,-0.31916 0.523372,-0.76285 0.523372,-1.25071 v -8.87035 c 0,-0.98462 -0.79835,-1.77409 -1.774085,-1.77409 z"
       inkscape:connector-curvature="0"
       style="display:inline;fill:#800000;stroke-width:0.88703662" />
    <text
       xml:space="preserve"
       style="font-style:normal;font-weight:normal;font-size:7.05555534px;line-height:1.25;font-family:sans-serif;letter-spacing:0px;word-spacing:0px;display:inline;fill:#000000;fill-opacity:1;stroke:none;stroke-width:0.71678632"
       x="14.839349"
       y="269.06802"
       id="text939"><tspan
         sodipodi:role="line"
         id="tspan937"
         x="14.839349"
         y="269.06802"
         style="font-size:7.05555534px;fill:#008000;stroke-width:0.71678632">плюсы </tspan></text>
    <text
       xml:space="preserve"
       style="font-style:normal;font-weight:normal;font-size:6.83515835px;line-height:1.25;font-family:sans-serif;letter-spacing:0px;word-spacing:0px;display:inline;fill:#000000;fill-opacity:1;stroke:none;stroke-width:0.69439578"
       x="-0.49710131"
       y="278.37064"
       id="text943"
       transform="scale(0.96876255,1.0322447)"><tspan
         sodipodi:role="line"
         id="tspan941"
         x="-0.49710131"
         y="278.37064"
         style="font-size:6.83515835px;fill:#800000;stroke-width:0.69439578">минусы</tspan></text>
  </g>
</svg>
