<?xml version="1.0" encoding="UTF-8" standalone="no"?>
<!-- Created with Inkscape (http://www.inkscape.org/) -->

<svg
   xmlns:dc="http://purl.org/dc/elements/1.1/"
   xmlns:cc="http://creativecommons.org/ns#"
   xmlns:rdf="http://www.w3.org/1999/02/22-rdf-syntax-ns#"
   xmlns:svg="http://www.w3.org/2000/svg"
   xmlns="http://www.w3.org/2000/svg"
   xmlns:sodipodi="http://sodipodi.sourceforge.net/DTD/sodipodi-0.dtd"
   xmlns:inkscape="http://www.inkscape.org/namespaces/inkscape"
   width="278"
   height="278"
   viewBox="0 0 73.554165 73.554169"
   version="1.1"
   id="svg1993"
   inkscape:version="0.92.3 (2405546, 2018-03-11)"
   sodipodi:docname="278x278.svg">
  <defs
     id="defs1987" />
  <sodipodi:namedview
     id="base"
     pagecolor="#ffffff"
     bordercolor="#666666"
     borderopacity="1.0"
     inkscape:pageopacity="0.0"
     inkscape:pageshadow="2"
     inkscape:zoom="3.03"
     inkscape:cx="119.464"
     inkscape:cy="134.42787"
     inkscape:document-units="mm"
     inkscape:current-layer="layer1"
     showgrid="false"
     units="px"
     inkscape:window-width="1920"
     inkscape:window-height="1052"
     inkscape:window-x="1366"
     inkscape:window-y="0"
     inkscape:window-maximized="1" />
  <metadata
     id="metadata1990">
    <rdf:RDF>
      <cc:Work
         rdf:about="">
        <dc:format>image/svg+xml</dc:format>
        <dc:type
           rdf:resource="http://purl.org/dc/dcmitype/StillImage" />
        <dc:title></dc:title>
      </cc:Work>
    </rdf:RDF>
  </metadata>
  <g
     inkscape:label="Layer 1"
     inkscape:groupmode="layer"
     id="layer1"
     transform="translate(0,-223.44581)">
    <path
       style="display:inline;fill:none;fill-opacity:1;stroke:#000000;stroke-width:1.361817;stroke-linejoin:round;stroke-miterlimit:4;stroke-dasharray:none;stroke-opacity:1"
       d="m 2.0880434,263.58356 c 0.05883,-25.51664 0.067425,-26.09784 0.3949313,-26.791 0.5802139,-1.22791 1.5940079,-2.20898 3.0018532,-2.90497 l 1.298903,-0.64214 14.3083111,-0.0849 c 7.869575,-0.0464 21.355718,-0.0464 29.969213,0 l 15.660893,0.0849 1.009469,0.4725 c 1.396997,0.65423 2.351152,1.48326 3.07101,2.66827 l 0.612325,1.00798 -0.04839,18.43789 -0.04839,18.43787 -0.465445,0.79172 c -0.844504,1.43659 -2.492997,2.61521 -4.25132,3.03958 -0.475894,0.11476 -9.474557,0.21412 -25.817874,0.28463 l -25.087363,0.1081 -6.5442583,5.37797 c -3.5993456,2.9579 -6.6747239,5.4716 -6.8341789,5.58591 -0.2727922,0.1956 -0.2863805,-1.33317 -0.2298146,-25.8745 z"
       id="path1083"
       inkscape:connector-curvature="0" />
    <path
       id="path864"
       d="m 36.625176,249.80852 c 0,-1.51163 -1.225609,-2.72365 -2.723599,-2.72365 h -8.606701 l 1.307344,-6.22351 c 0.02574,-0.13642 0.04117,-0.28619 0.04117,-0.43597 0,-0.55834 -0.231616,-1.07584 -0.599217,-1.44352 l -1.44354,-1.4299 -8.960751,8.96077 c -0.503894,0.50389 -0.80345,1.18473 -0.80345,1.93373 v 13.6182 a 2.7236341,2.7236341 0 0 0 2.723651,2.72361 h 12.25634 c 1.130286,0 2.097155,-0.6809 2.505725,-1.66142 l 4.11268,-9.6008 c 0.122506,-0.31345 0.19044,-0.64002 0.19044,-0.99414 v -2.72361 M 6.6653231,264.78828 H 12.112575 V 248.44647 H 6.6653288 Z"
       inkscape:connector-curvature="0"
       style="display:inline;fill:#008000;stroke-width:1.361817" />
    <path
       id="path924"
       d="m 62.0639,263.42668 h 5.447301 V 247.08487 H 62.0639 m -5.447236,0 H 44.360311 c -1.130286,0 -2.097206,0.6809 -2.505726,1.6614 l -4.11273,9.6008 c -0.122505,0.31347 -0.19044,0.6401 -0.19044,0.99416 v 2.72365 a 2.7236341,2.7236341 0 0 0 2.72365,2.72359 h 8.593062 l -1.293705,6.22353 c -0.02574,0.13642 -0.04117,0.27228 -0.04117,0.42207 0,0.57192 0.231618,1.07583 0.599166,1.44352 l 1.443534,1.44353 8.960764,-8.9744 c 0.503895,-0.48999 0.803502,-1.17116 0.803502,-1.92015 v -13.61815 c 0,-1.51163 -1.22566,-2.72364 -2.723651,-2.72364 z"
       inkscape:connector-curvature="0"
       style="display:inline;fill:#800000;stroke-width:1.361817" />
    <text
       xml:space="preserve"
       style="font-style:normal;font-weight:normal;font-size:54.47268295px;line-height:1.25;font-family:sans-serif;letter-spacing:0px;word-spacing:0px;display:inline;fill:#000000;fill-opacity:1;stroke:none;stroke-width:1.361817"
       x="27.167326"
       y="244.19128"
       id="text939"><tspan
         sodipodi:role="line"
         id="tspan937"
         x="27.167326"
         y="244.19128"
         style="font-size:10.89453602px;fill:#008000;stroke-width:1.361817">плюсы</tspan></text>
    <text
       xml:space="preserve"
       style="font-style:normal;font-weight:normal;font-size:54.47268295px;line-height:1.25;font-family:sans-serif;letter-spacing:0px;word-spacing:0px;display:inline;fill:#000000;fill-opacity:1;stroke:none;stroke-width:1.361817"
       x="4.0165076"
       y="273.64069"
       id="text943"><tspan
         sodipodi:role="line"
         id="tspan941"
         x="4.0165076"
         y="273.64069"
         style="font-size:10.89453602px;fill:#800000;stroke-width:1.361817">минусы</tspan></text>
  </g>
</svg>
