<?xml version="1.0" encoding="UTF-8" standalone="no"?>
<!-- Created with Inkscape (http://www.inkscape.org/) -->

<svg
   xmlns:dc="http://purl.org/dc/elements/1.1/"
   xmlns:cc="http://creativecommons.org/ns#"
   xmlns:rdf="http://www.w3.org/1999/02/22-rdf-syntax-ns#"
   xmlns:svg="http://www.w3.org/2000/svg"
   xmlns="http://www.w3.org/2000/svg"
   xmlns:sodipodi="http://sodipodi.sourceforge.net/DTD/sodipodi-0.dtd"
   xmlns:inkscape="http://www.inkscape.org/namespaces/inkscape"
   width="32"
   height="32"
   viewBox="0 0 8.4666665 8.4666669"
   version="1.1"
   id="svg1178"
   inkscape:version="0.92.3 (2405546, 2018-03-11)"
   sodipodi:docname="32x32.svg">
  <defs
     id="defs1172" />
  <sodipodi:namedview
     id="base"
     pagecolor="#ffffff"
     bordercolor="#666666"
     borderopacity="1.0"
     inkscape:pageopacity="0.0"
     inkscape:pageshadow="2"
     inkscape:zoom="8"
     inkscape:cx="-15.4375"
     inkscape:cy="18.571429"
     inkscape:document-units="mm"
     inkscape:current-layer="layer1"
     showgrid="false"
     units="px"
     inkscape:window-width="1920"
     inkscape:window-height="1052"
     inkscape:window-x="1366"
     inkscape:window-y="0"
     inkscape:window-maximized="1" />
  <metadata
     id="metadata1175">
    <rdf:RDF>
      <cc:Work
         rdf:about="">
        <dc:format>image/svg+xml</dc:format>
        <dc:type
           rdf:resource="http://purl.org/dc/dcmitype/StillImage" />
        <dc:title></dc:title>
      </cc:Work>
    </rdf:RDF>
  </metadata>
  <g
     inkscape:label="Layer 1"
     inkscape:groupmode="layer"
     id="layer1"
     transform="translate(0,-288.53332)">
    <path
       id="path864"
       d="m 4.2597169,291.78555 c 0,-0.19984 -0.1620284,-0.36008 -0.3600661,-0.36008 H 2.7618254 l 0.1728339,-0.82276 c 0.0034,-0.018 0.00544,-0.0378 0.00544,-0.0576 0,-0.0738 -0.03062,-0.14222 -0.079218,-0.19083 l -0.1908393,-0.18903 -1.1846314,1.18463 c -0.066616,0.0666 -0.106218,0.15663 -0.106218,0.25565 v 1.80036 a 0.36007062,0.36007062 0 0 0 0.3600729,0.36006 h 1.6203196 c 0.1494264,0 0.2772487,-0.09 0.3312626,-0.21964 l 0.5437055,-1.26925 c 0.016195,-0.0414 0.025177,-0.0846 0.025177,-0.13144 v -0.36005 m -3.96077238,1.98038 H 1.0190974 v -2.16043 H 0.29895812 Z"
       inkscape:connector-curvature="0"
       style="display:inline;fill:#008000;stroke-width:0.18003529" />
    <path
       id="path924"
       d="m 7.6227739,293.58591 h 0.7201457 v -2.16044 H 7.6227739 m -0.7201369,0 H 5.2823193 c -0.1494265,0 -0.2772555,0.09 -0.3312627,0.21965 l -0.5437123,1.26925 c -0.016195,0.0414 -0.025177,0.0846 -0.025177,0.13143 v 0.36007 a 0.36007062,0.36007062 0 0 0 0.3600729,0.36007 h 1.1360222 l -0.1710307,0.82276 c -0.0034,0.018 -0.00544,0.036 -0.00544,0.0558 0,0.0756 0.03062,0.14223 0.079211,0.19084 l 0.1908385,0.19084 1.1846335,-1.18644 c 0.066616,-0.0648 0.1062248,-0.15483 0.1062248,-0.25385 v -1.80035 c 0,-0.19984 -0.1620352,-0.36007 -0.3600729,-0.36007 z"
       inkscape:connector-curvature="0"
       style="display:inline;fill:#800000;stroke-width:0.18003529" />
    <text
       xml:space="preserve"
       style="font-style:normal;font-weight:normal;font-size:7.2014122px;line-height:1.25;font-family:sans-serif;letter-spacing:0px;word-spacing:0px;display:inline;fill:#000000;fill-opacity:1;stroke:none;stroke-width:0.18003529"
       x="3.009367"
       y="291.04291"
       id="text939"><tspan
         sodipodi:role="line"
         id="tspan937"
         x="3.009367"
         y="291.04291"
         style="font-size:1.44028234px;fill:#008000;stroke-width:0.18003529">плюсы</tspan></text>
    <text
       xml:space="preserve"
       style="font-style:normal;font-weight:normal;font-size:7.2014122px;line-height:1.25;font-family:sans-serif;letter-spacing:0px;word-spacing:0px;display:inline;fill:#000000;fill-opacity:1;stroke:none;stroke-width:0.18003529"
       x="-0.051223237"
       y="294.93619"
       id="text943"><tspan
         sodipodi:role="line"
         id="tspan941"
         x="-0.051223237"
         y="294.93619"
         style="font-size:1.44028234px;fill:#800000;stroke-width:0.18003529">минусы</tspan></text>
  </g>
</svg>
