<?xml version="1.0" encoding="UTF-8" standalone="no"?>
<!-- Created with Inkscape (http://www.inkscape.org/) -->

<svg
   xmlns:dc="http://purl.org/dc/elements/1.1/"
   xmlns:cc="http://creativecommons.org/ns#"
   xmlns:rdf="http://www.w3.org/1999/02/22-rdf-syntax-ns#"
   xmlns:svg="http://www.w3.org/2000/svg"
   xmlns="http://www.w3.org/2000/svg"
   xmlns:sodipodi="http://sodipodi.sourceforge.net/DTD/sodipodi-0.dtd"
   xmlns:inkscape="http://www.inkscape.org/namespaces/inkscape"
   width="32"
   height="32"
   viewBox="0 0 8.4666665 8.4666669"
   version="1.1"
   id="svg1178"
   inkscape:version="0.92.3 (2405546, 2018-03-11)"
   sodipodi:docname="32x32v2.svg">
  <defs
     id="defs1172" />
  <sodipodi:namedview
     id="base"
     pagecolor="#ffffff"
     bordercolor="#666666"
     borderopacity="1.0"
     inkscape:pageopacity="0.0"
     inkscape:pageshadow="2"
     inkscape:zoom="8"
     inkscape:cx="-15.4375"
     inkscape:cy="18.571429"
     inkscape:document-units="mm"
     inkscape:current-layer="layer1"
     showgrid="true"
     units="px"
     inkscape:window-width="1920"
     inkscape:window-height="1052"
     inkscape:window-x="1366"
     inkscape:window-y="0"
     inkscape:window-maximized="1">
    <inkscape:grid
       type="xygrid"
       id="grid5063" />
  </sodipodi:namedview>
  <metadata
     id="metadata1175">
    <rdf:RDF>
      <cc:Work
         rdf:about="">
        <dc:format>image/svg+xml</dc:format>
        <dc:type
           rdf:resource="http://purl.org/dc/dcmitype/StillImage" />
        <dc:title></dc:title>
      </cc:Work>
    </rdf:RDF>
  </metadata>
  <g
     inkscape:label="Layer 1"
     inkscape:groupmode="layer"
     id="layer1"
     transform="translate(0,-288.53332)">
    <path
       id="path864"
       d="m 4.2556895,292.00606 c 0,-0.22704 -0.1726874,-0.40908 -0.3837528,-0.40908 H 2.6592602 l 0.1842036,-0.93472 c 0.00362,-0.0204 0.0058,-0.0429 0.0058,-0.0654 0,-0.0838 -0.032634,-0.16157 -0.084429,-0.2168 l -0.2033935,-0.21475 -1.2625616,1.34583 c -0.070998,0.0757 -0.1132055,0.17794 -0.1132055,0.29044 v 2.04535 a 0.38375763,0.40906777 0 0 0 0.38376,0.40905 h 1.7269113 c 0.1592563,0 0.2954873,-0.10225 0.3530545,-0.24953 l 0.5794728,-1.44196 c 0.01726,-0.047 0.026833,-0.0961 0.026833,-0.14933 v -0.40904 m -4.22132911,2.24986 h 0.76751348 v -2.45441 H 0.03437481 Z"
       inkscape:connector-curvature="0"
       style="display:inline;fill:#008000;stroke-width:0.19810531" />
    <path
       id="path924"
       d="m 7.8399829,294.0514 h 0.76752 v -2.45442 h -0.76752 m -0.7675106,0 H 5.3455631 c -0.1592564,0 -0.2954946,0.10224 -0.3530546,0.24954 l -0.5794801,1.44196 c -0.01726,0.047 -0.026833,0.0961 -0.026833,0.14932 v 0.40906 a 0.38375763,0.40906777 0 0 0 0.38376,0.40907 h 1.2107547 l -0.1822818,0.93472 c -0.00362,0.0205 -0.0058,0.0409 -0.0058,0.0634 0,0.0859 0.032634,0.16159 0.084422,0.21681 l 0.2033927,0.21681 1.2625638,-1.34789 c 0.070998,-0.0736 0.1132128,-0.1759 0.1132128,-0.28839 v -2.04534 c 0,-0.22703 -0.1726946,-0.40906 -0.3837601,-0.40906 z"
       inkscape:connector-curvature="0"
       style="display:inline;fill:#800000;stroke-width:0.19810531" />
  </g>
</svg>
