<?xml version="1.0" encoding="UTF-8" standalone="no"?>
<!-- Created with Inkscape (http://www.inkscape.org/) -->

<svg
   xmlns:dc="http://purl.org/dc/elements/1.1/"
   xmlns:cc="http://creativecommons.org/ns#"
   xmlns:rdf="http://www.w3.org/1999/02/22-rdf-syntax-ns#"
   xmlns:svg="http://www.w3.org/2000/svg"
   xmlns="http://www.w3.org/2000/svg"
   xmlns:sodipodi="http://sodipodi.sourceforge.net/DTD/sodipodi-0.dtd"
   xmlns:inkscape="http://www.inkscape.org/namespaces/inkscape"
   width="210mm"
   height="297mm"
   viewBox="0 0 210 297"
   version="1.1"
   id="svg8"
   inkscape:version="0.92.3 (2405546, 2018-03-11)"
   sodipodi:docname="logo.svg">
  <defs
     id="defs2" />
  <sodipodi:namedview
     id="base"
     pagecolor="#ffffff"
     bordercolor="#666666"
     borderopacity="1.0"
     inkscape:pageopacity="0.0"
     inkscape:pageshadow="2"
     inkscape:zoom="8"
     inkscape:cx="379.38308"
     inkscape:cy="521.875"
     inkscape:document-units="mm"
     inkscape:current-layer="layer2"
     showgrid="true"
     inkscape:window-width="1920"
     inkscape:window-height="1052"
     inkscape:window-x="1366"
     inkscape:window-y="0"
     inkscape:window-maximized="1">
    <inkscape:grid
       type="xygrid"
       id="grid935" />
  </sodipodi:namedview>
  <metadata
     id="metadata5">
    <rdf:RDF>
      <cc:Work
         rdf:about="">
        <dc:format>image/svg+xml</dc:format>
        <dc:type
           rdf:resource="http://purl.org/dc/dcmitype/StillImage" />
        <dc:title></dc:title>
      </cc:Work>
    </rdf:RDF>
  </metadata>
  <g
     inkscape:label="Layer 1"
     inkscape:groupmode="layer"
     id="layer1"
     style="display:inline">
    <path
       style="fill:none;fill-opacity:1;stroke:#000000;stroke-width:1.00000001;stroke-opacity:1;stroke-miterlimit:4;stroke-dasharray:none;stroke-linejoin:round"
       d="m 314.95893,619.63486 c 0.0432,-18.73718 0.0495,-19.16396 0.28999,-19.67297 0.42606,-0.90166 1.1705,-1.62207 2.2043,-2.13316 l 0.9538,-0.47154 10.50678,-0.0625 c 5.77873,-0.0344 15.68178,-0.0344 22.00678,0 l 11.5,0.0625 0.74127,0.34714 c 1.02583,0.4804 1.72648,1.08917 2.25508,1.95934 l 0.44964,0.74019 -0.0355,13.53916 -0.0355,13.53917 -0.34177,0.58138 c -0.62013,1.05489 -1.83064,1.92037 -3.1218,2.232 -0.34946,0.0843 -6.95729,0.15716 -18.9584,0.20891 l -18.42198,0.0795 -4.80553,3.94913 c -2.64305,2.17202 -4.90134,4.01783 -5.01843,4.1018 -0.20031,0.14365 -0.21028,-0.979 -0.16874,-19 z"
       id="path1083"
       inkscape:connector-curvature="0"
       transform="scale(0.26458333)" />
  </g>
  <g
     inkscape:groupmode="layer"
     id="layer2"
     inkscape:label="Layer 2"
     style="display:inline">
    <path
       id="path864"
       d="m 90.042997,161.26875 c 0,-0.29369 -0.23812,-0.52917 -0.52916,-0.52917 h -1.67217 l 0.254,-1.20915 c 0.005,-0.0265 0.008,-0.0556 0.008,-0.0847 0,-0.10848 -0.045,-0.20902 -0.11642,-0.28046 l -0.28046,-0.27781 -1.740957,1.74096 c -0.0979,0.0979 -0.1561,0.23018 -0.1561,0.3757 v 2.64584 a 0.52916667,0.52916667 0 0 0 0.52917,0.52916 h 2.381247 c 0.2196,0 0.40745,-0.13229 0.48683,-0.32279 l 0.79904,-1.86531 c 0.0238,-0.0609 0.037,-0.12435 0.037,-0.19315 v -0.52916 m -5.820827,2.91041 h 1.05833 v -3.175 h -1.05833 z"
       inkscape:connector-curvature="0"
       style="fill:#008000;stroke-width:0.26458332" />
    <path
       id="path924"
       d="m 94.98541,163.91458 h 1.05834 v -3.175 h -1.05834 m -1.058327,0 h -2.38125 c -0.2196,0 -0.40746,0.13229 -0.48683,0.32279 l -0.79905,1.86531 c -0.0238,0.0609 -0.037,0.12436 -0.037,0.19315 V 163.65 a 0.52916667,0.52916667 0 0 0 0.52917,0.52916 h 1.66952 l -0.25135,1.20915 c -0.005,0.0265 -0.008,0.0529 -0.008,0.082 0,0.11112 0.045,0.20902 0.11641,0.28046 l 0.28046,0.28046 1.74096,-1.74361 c 0.0979,-0.0952 0.15611,-0.22754 0.15611,-0.37306 v -2.64583 c 0,-0.29369 -0.23813,-0.52917 -0.52917,-0.52917 z"
       inkscape:connector-curvature="0"
       style="fill:#800000;stroke-width:0.26458332" />
    <text
       xml:space="preserve"
       style="font-style:normal;font-weight:normal;font-size:10.58333302px;line-height:1.25;font-family:sans-serif;letter-spacing:0px;word-spacing:0px;fill:#000000;fill-opacity:1;stroke:none;stroke-width:0.26458332"
       x="88.20546"
       y="160.17737"
       id="text939"><tspan
         sodipodi:role="line"
         id="tspan937"
         x="88.20546"
         y="160.17737"
         style="font-size:2.11666656px;fill:#008000;stroke-width:0.26458332">плюсы</tspan></text>
    <text
       xml:space="preserve"
       style="font-style:normal;font-weight:normal;font-size:10.58333302px;line-height:1.25;font-family:sans-serif;letter-spacing:0px;word-spacing:0px;fill:#000000;fill-opacity:1;stroke:none;stroke-width:0.26458332"
       x="83.707558"
       y="165.89903"
       id="text943"><tspan
         sodipodi:role="line"
         id="tspan941"
         x="83.707558"
         y="165.89903"
         style="font-size:2.11666656px;fill:#800000;stroke-width:0.26458332">минусы</tspan></text>
  </g>
</svg>
