<?xml version="1.0" encoding="UTF-8" standalone="no"?>
<!-- Created with Inkscape (http://www.inkscape.org/) -->

<svg
   xmlns:dc="http://purl.org/dc/elements/1.1/"
   xmlns:cc="http://creativecommons.org/ns#"
   xmlns:rdf="http://www.w3.org/1999/02/22-rdf-syntax-ns#"
   xmlns:svg="http://www.w3.org/2000/svg"
   xmlns="http://www.w3.org/2000/svg"
   xmlns:sodipodi="http://sodipodi.sourceforge.net/DTD/sodipodi-0.dtd"
   xmlns:inkscape="http://www.inkscape.org/namespaces/inkscape"
   width="150"
   height="150"
   viewBox="0 0 39.687499 39.687501"
   version="1.1"
   id="svg1993"
   inkscape:version="0.92.3 (2405546, 2018-03-11)"
   sodipodi:docname="150x150.svg">
  <defs
     id="defs1987" />
  <sodipodi:namedview
     id="base"
     pagecolor="#ffffff"
     bordercolor="#666666"
     borderopacity="1.0"
     inkscape:pageopacity="0.0"
     inkscape:pageshadow="2"
     inkscape:zoom="4"
     inkscape:cx="-10.455656"
     inkscape:cy="87.419355"
     inkscape:document-units="mm"
     inkscape:current-layer="layer1"
     showgrid="true"
     units="px"
     inkscape:window-width="1920"
     inkscape:window-height="1052"
     inkscape:window-x="1366"
     inkscape:window-y="0"
     inkscape:window-maximized="1">
    <inkscape:grid
       type="xygrid"
       id="grid4461" />
  </sodipodi:namedview>
  <metadata
     id="metadata1990">
    <rdf:RDF>
      <cc:Work
         rdf:about="">
        <dc:format>image/svg+xml</dc:format>
        <dc:type
           rdf:resource="http://purl.org/dc/dcmitype/StillImage" />
        <dc:title />
      </cc:Work>
    </rdf:RDF>
  </metadata>
  <g
     inkscape:label="Layer 1"
     inkscape:groupmode="layer"
     id="layer1"
     transform="translate(0,-257.31248)">
    <path
       id="path864"
       d="m 35.317178,274.24604 c 0,-1.76213 -1.174691,-3.17499 -2.610446,-3.17499 H 24.4576 l 1.253029,-7.25492 c 0.02467,-0.15901 0.03945,-0.33361 0.03945,-0.50819 0,-0.65089 -0.221992,-1.25415 -0.574322,-1.68276 l -1.383564,-1.66687 -8.588475,10.44577 c -0.48296,0.58739 -0.770072,1.38107 -0.770072,2.25419 v 15.87506 a 2.6104803,3.1750029 0 0 0 2.610498,3.17498 h 11.747148 c 1.083327,0 2.010028,-0.79375 2.401622,-1.93677 l 3.941816,-11.1919 c 0.117424,-0.36535 0.182527,-0.74604 0.182527,-1.15885 V 274.2458 M 6.6020136,291.70831 H 11.822957 V 272.65827 H 6.6020191 Z"
       inkscape:connector-curvature="0"
       style="display:inline;fill:#008000;stroke-width:1.43946886" />
  </g>
</svg>
